<?xml version="1.0" encoding="UTF-8" standalone="no"?>
<svg
   xmlns:dc="http://purl.org/dc/elements/1.1/"
   xmlns:cc="http://creativecommons.org/ns#"
   xmlns:rdf="http://www.w3.org/1999/02/22-rdf-syntax-ns#"
   xmlns:svg="http://www.w3.org/2000/svg"
   xmlns="http://www.w3.org/2000/svg"
   xmlns:sodipodi="http://sodipodi.sourceforge.net/DTD/sodipodi-0.dtd"
   xmlns:inkscape="http://www.inkscape.org/namespaces/inkscape"
   inkscape:export-ydpi="96"
   inkscape:export-xdpi="96"
   inkscape:export-filename="/home/arthur.melin/Diabetips/api/data/default_app_logo.png"
   inkscape:version="1.0 (4035a4fb49, 2020-05-01)"
   sodipodi:docname="default_app_logo.svg"
   id="svg8"
   version="1.1"
   viewBox="0 0 100 100"
   height="100"
   width="100">
  <defs
     id="defs2">
    <inkscape:path-effect
       message="Use fill-rule evenodd on &lt;b&gt;fill and stroke&lt;/b&gt; dialog if no flatten result after convert clip to paths."
       hide_clip="false"
       flatten="false"
       inverse="true"
       lpeversion="1"
       is_visible="true"
       id="path-effect890"
       effect="powerclip" />
    <clipPath
       id="clipPath4576"
       clipPathUnits="userSpaceOnUse">
      <circle
         r="5"
         cy="353.54163"
         cx="83"
         id="circle4578"
         style="fill:#00a1e1;fill-opacity:0.39490446;stroke-width:0.50452501" />
    </clipPath>
    <clipPath
       id="clipPath4580"
       clipPathUnits="userSpaceOnUse">
      <circle
         r="5"
         cy="353.54163"
         cx="83"
         id="circle4582"
         style="fill:#00a1e1;fill-opacity:0.39490446;stroke-width:0.50452501" />
    </clipPath>
    <clipPath
       id="clipPath4584"
       clipPathUnits="userSpaceOnUse">
      <circle
         r="5"
         cy="353.54163"
         cx="83"
         id="circle4586"
         style="fill:#00a1e1;fill-opacity:0.39490446;stroke-width:0.50452501" />
    </clipPath>
    <clipPath
       id="clipPath880"
       clipPathUnits="userSpaceOnUse">
      <g
         style="display:none"
         transform="translate(0,-270.54163)"
         id="g888">
        <path
           style="display:inline;fill:#333333;fill-opacity:1;stroke-width:1.20653"
           d="M 32,49.253906 H 47.166016 C 56.479447,49.253906 64,56.774461 64,66.087891 c 0,8.41791 -6.270695,15.58163 -14.628906,16.65625 0.179106,-0.2388 0.418551,-0.534638 0.597656,-0.773438 3.880596,-5.49254 2.864793,-13.01399 -2.269531,-17.3125 l 2.15039,-3.046875 c 1.61194,0.59702 3.404151,0.0606 4.359375,-1.3125 1.194028,-1.67163 0.775158,-3.940736 -0.896484,-5.134766 -1.671641,-1.19402 -3.940737,-0.779071 -5.134766,0.892579 -0.955224,1.37313 -0.892984,3.224795 0.181641,4.478515 l -2.150391,3.046875 C 41.791074,60.895471 36.238806,61.071561 32,64.056641 v -5.251953 z"
           transform="translate(0,270.54163)"
           id="path882"
           inkscape:connector-curvature="0" />
        <path
           style="display:inline;opacity:1;fill:#333333;fill-opacity:1;stroke-width:1.20653"
           d="m 36.537109,64.658203 c 0.537313,0 1.013732,0.1761 1.431641,0.474609 1.194031,0.835821 1.495976,2.509086 0.660156,3.703126 -0.835821,1.19402 -2.509095,1.492059 -3.703125,0.65625 -1.194029,-0.835821 -1.49207,-2.509085 -0.65625,-3.703126 0.537314,-0.77611 1.372056,-1.190539 2.267578,-1.130859 z"
           transform="translate(0,270.54163)"
           id="path884"
           inkscape:connector-curvature="0" />
        <path
           style="display:inline;fill:#333333;fill-opacity:1;stroke-width:1.20653"
           d="m 47.402344,72.298828 c 0.537314,0 1.01373,0.178053 1.43164,0.476563 1.194031,0.83582 1.495978,2.507152 0.660157,3.701171 -0.835819,1.19403 -2.509096,1.49207 -3.703125,0.65625 -1.19403,-0.835829 -1.492071,-2.507141 -0.65625,-3.701171 0.537313,-0.77611 1.372057,-1.192653 2.267578,-1.132813 z"
           transform="translate(0,270.54163)"
           id="path886"
           inkscape:connector-curvature="0" />
      </g>
      <path
         d="M 3,39 H 93 V 93 H 3 Z m 29,10.253906 v 9.550782 5.251953 c 4.238806,-2.98508 9.791074,-3.16117 14.208984,-0.47461 l 2.150391,-3.046875 c -1.074625,-1.25372 -1.136865,-3.105385 -0.181641,-4.478515 1.194029,-1.67165 3.463125,-2.086599 5.134766,-0.892579 1.671642,1.19403 2.090512,3.463136 0.896484,5.134766 -0.955224,1.3731 -2.747435,1.90952 -4.359375,1.3125 l -2.15039,3.046875 c 5.134324,4.29851 6.150127,11.81996 2.269531,17.3125 -0.179105,0.2388 -0.41855,0.534638 -0.597656,0.773438 C 57.729305,81.669521 64,74.505801 64,66.087891 64,56.774461 56.479447,49.253906 47.166016,49.253906 Z m 4.537109,15.404297 c -0.895522,-0.05968 -1.730264,0.354749 -2.267578,1.130859 -0.83582,1.194041 -0.537779,2.867305 0.65625,3.703126 1.19403,0.835809 2.867304,0.53777 3.703125,-0.65625 0.83582,-1.19404 0.533875,-2.867305 -0.660156,-3.703126 -0.417909,-0.298509 -0.894328,-0.474609 -1.431641,-0.474609 z m 10.865235,7.640625 c -0.895521,-0.05984 -1.730265,0.356703 -2.267578,1.132813 -0.835821,1.19403 -0.53778,2.865342 0.65625,3.701171 1.194029,0.83582 2.867306,0.53778 3.703125,-0.65625 0.835821,-1.194019 0.533874,-2.865351 -0.660157,-3.701171 -0.41791,-0.29851 -0.894326,-0.476563 -1.43164,-0.476563 z"
         class="powerclip"
         id="lpe_path-effect890" />
    </clipPath>
  </defs>
  <sodipodi:namedview
     inkscape:document-rotation="0"
     inkscape:window-maximized="1"
     inkscape:window-y="0"
     inkscape:window-x="0"
     inkscape:window-height="1362"
     inkscape:window-width="2560"
     borderlayer="true"
     inkscape:showpageshadow="false"
     inkscape:pagecheckerboard="true"
     units="px"
     showgrid="false"
     inkscape:current-layer="layer1"
     inkscape:document-units="px"
     inkscape:cy="50.869845"
     inkscape:cx="31.560923"
     inkscape:zoom="4.75935"
     inkscape:pageshadow="2"
     inkscape:pageopacity="0.0"
     borderopacity="1.0"
     bordercolor="#666666"
     pagecolor="#ffffff"
     id="base" />
  <metadata
     id="metadata5">
    <rdf:RDF>
      <cc:Work
         rdf:about="">
        <dc:format>image/svg+xml</dc:format>
        <dc:type
           rdf:resource="http://purl.org/dc/dcmitype/StillImage" />
        <dc:title />
      </cc:Work>
    </rdf:RDF>
  </metadata>
  <g
     style="display:inline"
     transform="translate(0,-270.54163)"
     id="layer1"
     inkscape:groupmode="layer"
     inkscape:label="Layer 1">
    <path
       inkscape:original-d="m 8,44 v 38 c 0,3.324 2.676,6 6,6 h 68 c 3.324,0 6,-2.676 6,-6 V 44 Z"
       inkscape:path-effect="#path-effect890"
       clip-path="url(#clipPath880)"
       inkscape:connector-curvature="0"
       id="path956"
       transform="translate(0,270.54163)"
       d="m 8,44 v 38 c 0,3.324 2.676,6 6,6 h 68 c 3.324,0 6,-2.676 6,-6 V 44 Z"
       style="display:inline;opacity:1;fill:#2196f3;fill-opacity:1;stroke-width:1.20653" />
    <path
       inkscape:connector-curvature="0"
       id="path948"
       transform="translate(0,270.54163)"
       d="m 14,32 c -3.324,0 -6,2.676 -6,6 v 4 h 80 v -4 c 0,-3.324 -2.676,-6 -6,-6 z m 0,3 a 2,2 0 0 1 2,2 2,2 0 0 1 -2,2 2,2 0 0 1 -2,-2 2,2 0 0 1 2,-2 z"
       style="display:inline;fill:#2196f3;fill-opacity:1;stroke-width:1.20653" />
    <g
       id="flowRoot863"
       style="font-style:normal;font-variant:normal;font-weight:normal;font-stretch:normal;font-size:40px;line-height:1.25;font-family:Ubuntu;-inkscape-font-specification:Ubuntu;letter-spacing:0px;word-spacing:0px;fill:#333333;fill-opacity:1;stroke:none"
       transform="matrix(1.0228635,0,0,1.0228635,-51.559158,217.08232)"
       aria-label="?">
      <path
         id="path22"
         style="font-style:normal;font-variant:normal;font-weight:bold;font-stretch:normal;font-size:53.3333px;font-family:Roboto;-inkscape-font-specification:'Roboto Bold';fill:#333333;fill-opacity:1"
         d="m 124.7513,90.793048 q 0,-3.645833 0.88542,-5.807291 0.88542,-2.161459 3.22917,-4.244792 2.36979,-2.109375 3.15104,-3.411458 0.78125,-1.328125 0.78125,-2.786458 0,-4.401042 -4.0625,-4.401042 -1.92709,0 -3.09896,1.197917 -1.14583,1.171875 -1.19792,3.255208 h -7.55208 q 0.0521,-4.973958 3.20312,-7.786458 3.17709,-2.8125 8.64584,-2.8125 5.52083,0 8.5677,2.682291 3.04688,2.65625 3.04688,7.526042 0,2.213541 -0.98958,4.192708 -0.98959,1.953125 -3.46355,4.348958 l -2.10937,2.005209 q -1.97917,1.901041 -2.26562,4.453124 l -0.10417,1.588542 z m -0.75521,7.994792 q 0,-1.744792 1.17188,-2.864584 1.19792,-1.145833 3.04687,-1.145833 1.84896,0 3.02084,1.145833 1.19791,1.119792 1.19791,2.864584 0,1.71875 -1.17187,2.83854 -1.14583,1.11979 -3.04688,1.11979 -1.90104,0 -3.07291,-1.11979 -1.14584,-1.11979 -1.14584,-2.83854 z" />
    </g>
  </g>
</svg>
